<svg width="17" height="17" viewBox="0 0 17 17" fill="none" xmlns="http://www.w3.org/2000/svg">
<path d="M8.16398 0.36804C7.93253 0.36778 7.71048 0.459609 7.54682 0.623271C7.38316 0.786933 7.29133 1.00898 7.29159 1.24043L7.2854 7.28531L1.23433 7.28531C1.00288 7.28505 0.780834 7.37688 0.617172 7.54054C0.45351 7.70421 0.361681 7.92625 0.361941 8.15771C0.361941 8.64031 0.751734 9.0301 1.23433 9.0301L7.2854 9.0301L7.2854 15.0812C7.2854 15.5638 7.67519 15.9536 8.15779 15.9536C8.64039 15.9536 9.03019 15.5638 9.03019 15.0812L9.03019 9.0301L15.0813 9.0301C15.5639 9.0301 15.9536 8.64031 15.9536 8.15771C15.9536 7.67511 15.5639 7.28531 15.0813 7.28531H9.03019L9.03019 1.23425C9.03019 0.76402 8.63421 0.36804 8.16398 0.36804Z" fill="#1B59F8" stroke="#1B59F8" stroke-width="0.5"/>
</svg>
